<svg width="106" height="106" viewBox="0 0 106 106" fill="none" xmlns="http://www.w3.org/2000/svg">
<g id="Chat">
<g id="Ellipse 28" filter="url(#filter0_d_128_1740)">
<circle cx="53" cy="49" r="42" fill="white"/>
</g>
<g id="Group 1413371777">
<circle id="Ellipse 29" cx="53" cy="49" r="34" fill="#002B5B"/>
<path id="Vector" fill-rule="evenodd" clip-rule="evenodd" d="M47.883 38.8832H58.1124C59.7707 38.8832 61.2773 39.5764 62.3668 40.6974C63.4597 41.8184 64.1355 43.3638 64.1355 45.0613V52.2083C64.1355 53.9093 63.4597 55.4547 62.3668 56.5722C61.2739 57.6932 59.7672 58.3863 58.1124 58.3863H47.883C46.2247 58.3863 44.7181 57.6897 43.6286 56.5722C42.5357 55.4511 41.8599 53.9058 41.8599 52.2083V45.0613C41.8599 43.3603 42.5357 41.8149 43.6286 40.6974C44.7181 39.5764 46.2247 38.8832 47.883 38.8832ZM52.9994 69.7487C55.8541 69.7487 58.564 69.1263 61.0119 68.0053L58.5502 62.3046C58.1158 62.3577 57.671 62.3824 57.2228 62.3824H48.7794C48.2209 62.3824 47.6727 62.34 47.1349 62.2622L44.7112 67.8744C47.228 69.0768 50.0379 69.7487 52.9994 69.7487ZM62.7392 67.107C68.6795 63.6308 72.6823 57.0743 72.6823 49.5595C72.6823 38.4094 63.87 29.3704 52.9994 29.3704C42.1288 29.3704 33.3165 38.4094 33.3165 49.5595C33.3165 56.9612 37.2021 63.4328 42.9942 66.9479L45.218 61.8025C43.4666 61.2154 41.8944 60.2111 40.6188 58.9027C38.526 56.7561 37.2262 53.7926 37.2262 50.5321V48.6366H39.1638V50.5321C39.1638 53.2445 40.2464 55.7093 41.9875 57.4952C43.732 59.2846 46.1351 60.3915 48.776 60.3915H57.2194C59.8638 60.3915 62.2668 59.281 64.0079 57.4952C65.7524 55.7058 66.8316 53.2409 66.8316 50.5321V48.6366H68.7692V50.5321C68.7692 53.7926 67.4694 56.7561 65.3766 58.9027C64.0286 60.2854 62.353 61.3286 60.4844 61.898L62.7392 67.107ZM58.1124 40.8707H47.883C46.7591 40.8707 45.7386 41.341 44.9973 42.1013C44.2561 42.8616 43.7975 43.9084 43.7975 45.0613V52.2083C43.7975 53.3612 44.2561 54.4079 44.9973 55.1682C45.7386 55.9286 46.7591 56.3989 47.883 56.3989H58.1124C59.2363 56.3989 60.2568 55.9286 60.9981 55.1682C61.7393 54.4079 62.1979 53.3612 62.1979 52.2083V45.0613C62.1979 43.9084 61.7393 42.8616 60.9981 42.1013C60.2568 41.341 59.2363 40.8707 58.1124 40.8707ZM52.9994 71.8529C65.0043 71.8529 74.7371 61.8697 74.7371 49.556C74.7371 37.2459 65.0043 27.2627 52.9994 27.2627C40.9946 27.2627 31.2617 37.2459 31.2617 49.5595C31.2617 61.8732 40.9946 71.8529 52.9994 71.8529Z" fill="white"/>
</g>
</g>
<defs>
<filter id="filter0_d_128_1740" x="0" y="0" width="106" height="106" filterUnits="userSpaceOnUse" color-interpolation-filters="sRGB">
<feFlood flood-opacity="0" result="BackgroundImageFix"/>
<feColorMatrix in="SourceAlpha" type="matrix" values="0 0 0 0 0 0 0 0 0 0 0 0 0 0 0 0 0 0 127 0" result="hardAlpha"/>
<feOffset dy="4"/>
<feGaussianBlur stdDeviation="5.5"/>
<feComposite in2="hardAlpha" operator="out"/>
<feColorMatrix type="matrix" values="0 0 0 0 0 0 0 0 0 0 0 0 0 0 0 0 0 0 0.08 0"/>
<feBlend mode="normal" in2="BackgroundImageFix" result="effect1_dropShadow_128_1740"/>
<feBlend mode="normal" in="SourceGraphic" in2="effect1_dropShadow_128_1740" result="shape"/>
</filter>
</defs>
</svg>
