<svg width="72" height="48" viewBox="0 0 72 48" fill="none" xmlns="http://www.w3.org/2000/svg">
<g id="Frame" clip-path="url(#clip0_6_940)">
<g id="Group">
<path id="Vector" d="M0.568359 43.6849C0.568359 42.8246 0.695067 42.104 0.948481 41.5177C1.1345 41.0876 1.3933 40.7013 1.71951 40.3588C2.04571 40.0164 2.40427 39.7643 2.78978 39.5972C3.30739 39.3753 3.90319 39.2629 4.57986 39.2629C5.8038 39.2629 6.77971 39.6492 7.5157 40.4218C8.24898 41.1944 8.61562 42.2684 8.61562 43.6438C8.61562 45.0081 8.25168 46.0739 7.52378 46.8438C6.79589 47.6136 5.81997 47.9999 4.60412 47.9999C3.3694 47.9999 2.38809 47.6164 1.6602 46.8492C0.932306 46.0849 0.568359 45.0301 0.568359 43.6849ZM2.29374 43.6273C2.29374 44.5835 2.5121 45.3068 2.94614 45.7999C3.38018 46.2931 3.93284 46.5397 4.60143 46.5397C5.27001 46.5397 5.81997 46.2931 6.25132 45.8054C6.67997 45.315 6.89294 44.5807 6.89294 43.6027C6.89294 42.6355 6.68536 41.9123 6.2648 41.4383C5.84693 40.9616 5.29427 40.7232 4.60143 40.7232C3.91128 40.7232 3.35322 40.9643 2.92997 41.4465C2.50671 41.9287 2.29374 42.6547 2.29374 43.6273ZM10.5701 39.4191H12.2497V43.9862C12.2497 44.7123 12.2713 45.1807 12.3117 45.3944C12.3818 45.7397 12.5516 46.0191 12.8185 46.2273C13.0881 46.4383 13.4521 46.5424 13.9158 46.5424C14.3848 46.5424 14.7407 46.4438 14.9806 46.2465C15.2206 46.0492 15.3635 45.8081 15.412 45.5177C15.4605 45.2301 15.4848 44.7534 15.4848 44.0849V39.4191H17.1643V43.852C17.1643 44.8657 17.1212 45.5807 17.0295 45.9972C16.9379 46.4164 16.7734 46.767 16.5308 47.0575C16.2882 47.3451 15.9646 47.5725 15.5603 47.7451C15.1532 47.915 14.6248 48.0027 13.9697 48.0027C13.1798 48.0027 12.5813 47.9095 12.1742 47.7232C11.7671 47.5369 11.4436 47.2958 11.2064 46.9972C10.9691 46.6986 10.8155 46.389 10.74 46.0602C10.6295 45.578 10.5755 44.8629 10.5755 43.9205V39.4191H10.5701ZM21.4427 47.8465V40.8438H18.9868V39.4191H25.5647V40.8438H23.1196V47.8465H21.4427ZM27.2739 47.8465V39.4191H29.7892L31.2747 45.167L32.7439 39.4191H35.2646V47.8465H33.7118L33.7064 41.2109L32.07 47.8465H30.4551L28.8268 41.2109L28.8214 47.8465H27.2739ZM45.0615 47.8465H43.2526L42.5354 45.9287H39.2087L38.5186 47.8465H36.742L39.9609 39.4191H41.7348L45.0615 47.8465ZM41.9909 44.504L40.8397 41.3835L39.7209 44.504H41.9909ZM46.6224 47.8465V39.4191H48.302V43.1533L51.6853 39.4191H53.9364L50.8065 42.7013L54.0982 47.8465H51.9333L49.6526 43.8903L48.302 45.2986V47.8465H46.6224ZM55.6079 47.8465V39.4191H61.7464V40.8438H57.2874V42.715H61.4337V44.1397H57.2874V46.4246H61.9082V47.8492H55.6079V47.8465ZM63.9759 47.8465V39.4191H67.5022C68.3891 39.4191 69.0334 39.4958 69.4351 39.6465C69.8395 39.7972 70.1603 40.0657 70.4003 40.452C70.6402 40.841 70.7642 41.2821 70.7642 41.7807C70.7642 42.4136 70.5836 42.9369 70.2169 43.3479C69.853 43.7588 69.3084 44.0191 68.5805 44.126C68.9418 44.3397 69.2383 44.5753 69.4729 44.8328C69.7074 45.0903 70.0255 45.5479 70.4218 46.2027L71.4328 47.8465H69.4297L68.2301 46.0054C67.7987 45.3533 67.5049 44.9397 67.3431 44.7698C67.1841 44.5999 67.0169 44.4821 66.839 44.4218C66.6584 44.3588 66.378 44.3287 65.9925 44.3287H65.6528V47.8492H63.9759V47.8465ZM65.6555 42.9862H66.8956C67.699 42.9862 68.1977 42.9506 68.3999 42.8821C68.5994 42.8136 68.7558 42.6931 68.869 42.526C68.9822 42.3561 69.0388 42.1451 69.0388 41.8931C69.0388 41.6081 68.9634 41.3807 68.8151 41.2054C68.6668 41.0301 68.4565 40.9205 68.1869 40.8766C68.0494 40.8575 67.6424 40.8465 66.9657 40.8465H65.6582V42.9862H65.6555Z" fill="#002B5B"/>
<path id="Vector_2" fill-rule="evenodd" clip-rule="evenodd" d="M32.0028 9.00274H40.0015C41.2983 9.00274 42.4764 9.53973 43.3283 10.4082C44.1829 11.2767 44.7113 12.474 44.7113 13.789V19.326C44.7113 20.6438 44.1829 21.8411 43.3283 22.7068C42.4737 23.5753 41.2956 24.1123 40.0015 24.1123H32.0028C30.7061 24.1123 29.528 23.5726 28.6761 22.7068C27.8215 21.8384 27.2931 20.6411 27.2931 19.326V13.789C27.2931 12.4712 27.8215 11.274 28.6761 10.4082C29.528 9.53973 30.7061 9.00274 32.0028 9.00274ZM36.0035 32.9151C38.2357 32.9151 40.3547 32.4329 42.2688 31.5644L40.3439 27.1479C40.0042 27.189 39.6565 27.2082 39.306 27.2082H32.7037C32.267 27.2082 31.8383 27.1753 31.4178 27.1151L29.5226 31.463C31.4906 32.3945 33.6877 32.9151 36.0035 32.9151ZM43.6194 30.8685C48.2645 28.1753 51.3944 23.0959 51.3944 17.274C51.3944 8.63562 44.5037 1.63288 36.0035 1.63288C27.5033 1.63288 20.6126 8.63562 20.6126 17.274C20.6126 23.0082 23.6509 28.0219 28.18 30.7452L29.9189 26.7589C28.5493 26.3041 27.32 25.526 26.3225 24.5123C24.6861 22.8493 23.6698 20.5534 23.6698 18.0274V16.5589H25.1849V18.0274C25.1849 20.1288 26.0314 22.0384 27.3928 23.4219C28.7569 24.8082 30.636 25.6658 32.701 25.6658H39.3033C41.371 25.6658 43.2501 24.8055 44.6115 23.4219C45.9756 22.0356 46.8195 20.126 46.8195 18.0274V16.5589H48.3346V18.0274C48.3346 20.5534 47.3182 22.8493 45.6818 24.5123C44.6277 25.5836 43.3175 26.3918 41.8563 26.8329L43.6194 30.8685ZM40.0015 10.5425H32.0028C31.1239 10.5425 30.3259 10.9068 29.7463 11.4959C29.1667 12.0849 28.8082 12.8959 28.8082 13.789V19.326C28.8082 20.2192 29.1667 21.0301 29.7463 21.6192C30.3259 22.2082 31.1239 22.5726 32.0028 22.5726H40.0015C40.8804 22.5726 41.6784 22.2082 42.258 21.6192C42.8376 21.0301 43.1962 20.2192 43.1962 19.326V13.789C43.1962 12.8959 42.8376 12.0849 42.258 11.4959C41.6784 10.9068 40.8804 10.5425 40.0015 10.5425ZM36.0035 34.5452C45.3906 34.5452 53.0012 26.811 53.0012 17.2712C53.0012 7.73425 45.3906 0 36.0035 0C26.6164 0 19.0059 7.73425 19.0059 17.274C19.0059 26.8137 26.6164 34.5452 36.0035 34.5452Z" fill="#002B5B"/>
</g>
</g>
<defs>
<clipPath id="clip0_6_940">
<rect width="70.8671" height="48" fill="white" transform="translate(0.568359)"/>
</clipPath>
</defs>
</svg>
