<svg width="16" height="16" viewBox="0 0 16 16" fill="none" xmlns="http://www.w3.org/2000/svg">
<g clip-path="url(#clip0_119_24)">
<path d="M15.9646 8.74829H0.0361328V8.74853H15.9646V8.74829Z" fill="#C42126"/>
<path d="M15.1348 4.38086H0.866211V4.3811H15.1348V4.38086Z" fill="#C42126"/>
<path d="M15.7017 5.83643H0.298828V5.83666H15.7017V5.83643Z" fill="#C42126"/>
<path d="M3.43898 14.5708H12.5623L12.5628 14.5703H3.43848L3.43898 14.5708Z" fill="#C42126"/>
<path d="M7.99999 0C7.84285 0 7.68696 0.00567475 7.53223 0.0145247H8.46785C8.31298 0.00567475 8.15713 0 7.99999 0Z" fill="#C42126"/>
<path d="M15.9668 7.29248H0.0332031V7.29272H15.9668V7.29248Z" fill="#C42126"/>
<path d="M10.3648 2.92552H14.1848C13.7311 2.37314 13.2037 1.88417 12.6195 1.47021H9.75098C9.98834 1.88782 10.1925 2.38057 10.3648 2.92552Z" fill="#E7E7E7"/>
<path d="M9.75086 1.47008H12.6194C11.4335 0.62971 10.0098 0.103444 8.46799 0.0144043H8.22168C8.94737 0.105741 9.2807 0.642816 9.75086 1.47008Z" fill="#DC3027"/>
<path d="M15.7015 5.83665C15.5593 5.32937 15.3685 4.84266 15.1341 4.38135H10.7393C10.8283 4.8486 10.8986 5.33667 10.9506 5.83665H15.7015Z" fill="#E7E7E7"/>
<path d="M10.4925 4.38132H15.1344C14.8699 3.86103 14.5521 3.3728 14.1848 2.92578H10.1299C10.2729 3.37838 10.3943 3.86661 10.4925 4.38132Z" fill="#DC3027"/>
<path d="M11.1191 8.74789H15.964C15.987 8.50171 16 8.25222 16 8.0001C16 7.76149 15.9875 7.52592 15.967 7.29248H11.1203C11.1361 7.77652 11.1358 8.26411 11.1191 8.74789Z" fill="#E7E7E7"/>
<path d="M15.9675 7.29222C15.9236 6.79237 15.8336 6.30606 15.7021 5.83691H10.7471C10.7968 6.31349 10.8297 6.80108 10.8457 7.29222H15.9675Z" fill="#DC3027"/>
<path d="M10.6562 11.6592H15.1137C15.3514 11.1983 15.5452 10.7113 15.6905 10.2036H10.8718C10.8187 10.7043 10.7467 11.1923 10.6562 11.6592Z" fill="#E7E7E7"/>
<path d="M15.69 10.2036C15.8243 9.73458 15.9175 9.24828 15.9638 8.74829H10.9679C10.9508 9.2398 10.917 9.72725 10.8662 10.2036H15.69Z" fill="#DC3027"/>
<path d="M12.5619 14.5701C13.1546 14.1578 13.6894 13.6683 14.1504 13.1147H10.3969C10.2214 13.662 10.0131 14.1539 9.77148 14.5701H12.5619Z" fill="#E7E7E7"/>
<path d="M10.2559 13.1147H14.1506C14.5222 12.6682 14.8448 12.18 15.1132 11.6592H10.6231C10.5234 12.1743 10.4008 12.6627 10.2559 13.1147Z" fill="#DC3027"/>
<path d="M7.70964 15.9944C7.69346 15.9939 7.67731 15.9932 7.66113 15.9927C7.67731 15.9931 7.69349 15.9939 7.70964 15.9944Z" fill="#DC3027"/>
<path d="M8 16.0002C9.69604 16.0002 11.2675 15.4708 12.5618 14.5708H9.66649C9.15262 15.4561 8.81358 16.0002 8 16.0002Z" fill="#DC3027"/>
<path d="M7.99985 16.0001C7.9027 16.0001 7.8062 15.9978 7.70996 15.9944C7.80721 15.9977 7.90381 16.0001 7.99985 16.0001Z" fill="#C42126"/>
<path d="M10.0155 1.47021H3.38088C2.79655 1.88417 2.26931 2.37311 1.81543 2.92552H10.6292C10.4569 2.38057 10.2529 1.88782 10.0155 1.47021Z" fill="#F3F4F5"/>
<path d="M3.38086 1.47008H10.0155C9.54523 0.642816 8.94712 0.105741 8.22142 0.0144043H7.53211C5.9903 0.103444 4.56658 0.62971 3.38086 1.47008Z" fill="#E73625"/>
<path d="M0.298828 5.83665H11.2035C11.1514 5.33656 11.0812 4.8486 10.9922 4.38135H0.866236C0.631781 4.84269 0.441069 5.32937 0.298828 5.83665Z" fill="#F3F4F5"/>
<path d="M1.81572 2.92554C1.44865 3.37256 1.13059 3.86076 0.866211 4.38108H10.992C10.8938 3.86647 10.7725 3.37827 10.6295 2.92554C10.6295 2.92554 1.81572 2.92554 1.81572 2.92554Z" fill="#E73625"/>
<path d="M0 8C0 8.25212 0.0131398 8.50161 0.0360077 8.74778H11.3008C11.3174 8.26398 11.3177 7.77652 11.3019 7.29248H0.0329676C0.012498 7.52582 0 7.76139 0 8Z" fill="#F3F4F5"/>
<path d="M0.0332031 7.29222H11.302C11.286 6.80098 11.253 6.31353 11.2033 5.83691H0.298464C0.166965 6.30616 0.0769122 6.79237 0.0332031 7.29222Z" fill="#E73625"/>
<path d="M11.1988 10.2036H0.30957C0.454851 10.7114 0.648738 11.1984 0.886335 11.6592H10.9833C11.0738 11.1924 11.1456 10.7044 11.1988 10.2036Z" fill="#F3F4F5"/>
<path d="M0.309973 10.2036H11.1992C11.2499 9.72725 11.2838 9.23966 11.3009 8.74829H0.0361328C0.0824766 9.24838 0.17584 9.73458 0.309973 10.2036Z" fill="#E73625"/>
<path d="M3.43803 14.5701H9.99133C10.233 14.1538 10.4414 13.662 10.6167 13.1147H1.84961C2.31055 13.6683 2.84522 14.1578 3.43803 14.5701Z" fill="#F3F4F5"/>
<path d="M0.886719 11.6592C1.15515 12.18 1.47774 12.6682 1.84937 13.1147H10.6165C10.7613 12.6628 10.8839 12.1743 10.9836 11.6592H0.886719Z" fill="#E73625"/>
<path d="M7.66161 15.9925C7.67779 15.993 7.69393 15.9938 7.71011 15.9943C7.80638 15.9977 7.90289 16 8 16C8.81362 16 9.47702 15.4559 9.99099 14.5706H3.43848C4.64595 15.4104 6.09531 15.9272 7.66161 15.9925Z" fill="#E73625"/>
<path d="M7.8347 0.00415039C3.73513 0.087549 0.393783 3.25288 0.0341797 7.27922H7.83484V0.00415039H7.8347Z" fill="#283991"/>
<path d="M1.60076 4.53223L1.72263 4.9075H2.1175L1.79806 5.13956L1.92006 5.51511L1.60076 5.28292L1.28155 5.51511L1.40332 5.13956L1.08398 4.9075H1.47885L1.60076 4.53223Z" fill="#EFEFEF"/>
<path d="M1.60076 5.8584L1.72263 6.23391H2.1175L1.79806 6.46597L1.92006 6.84152L1.60076 6.60932L1.28155 6.84152L1.40332 6.46597L1.08398 6.23391H1.47885L1.60076 5.8584Z" fill="#EFEFEF"/>
<path d="M2.92707 2.54321L3.04897 2.91863H3.4437L3.12436 3.15082L3.24627 3.52609L2.92707 3.29417L2.60773 3.52609L2.72963 3.15082L2.41016 2.91863H2.80502L2.92707 2.54321Z" fill="#EFEFEF"/>
<path d="M2.92707 3.86914L3.04897 4.24455H3.4437L3.12436 4.47647L3.24627 4.85202L2.92707 4.6201L2.60773 4.85202L2.72963 4.47647L2.41016 4.24455H2.80502L2.92707 3.86914Z" fill="#EFEFEF"/>
<path d="M2.92707 5.19531L3.04897 5.57086H3.4437L3.12436 5.80265L3.24627 6.17819L2.92707 5.94604L2.60773 6.17819L2.72963 5.80265L2.41016 5.57086H2.80502L2.92707 5.19531Z" fill="#EFEFEF"/>
<path d="M0.594276 6.17808L0.472269 5.80253L0.791609 5.57061H0.396977L0.388127 5.54321C0.344789 5.67725 0.30564 5.8129 0.269531 5.95007L0.275105 5.94592L0.594276 6.17808Z" fill="#EFEFEF"/>
<path d="M1.28167 4.18928L1.60088 3.95712L1.92022 4.18928L1.79821 3.81373L2.11755 3.58158H1.72268L1.60078 3.2063L1.47887 3.58158H1.33335C1.30633 3.62251 1.28019 3.66369 1.25391 3.70524L1.40348 3.81373L1.28167 4.18928Z" fill="#EFEFEF"/>
<path d="M2.92703 1.96804L3.24624 2.19996L3.12433 1.82469L3.44354 1.59253H3.21553C3.02188 1.7373 2.83505 1.89052 2.65556 2.05218L2.60742 2.19996L2.92703 1.96804Z" fill="#EFEFEF"/>
<path d="M3.93359 1.53715L4.25293 1.30499L4.57214 1.53715L4.45023 1.1616L4.76944 0.929683H4.3747L4.35815 0.87915C4.22439 0.947484 4.09201 1.01859 3.96264 1.09425L4.05536 1.16157L3.93359 1.53715Z" fill="#EFEFEF"/>
<path d="M4.2532 1.88037L4.37511 2.25555H4.76984L4.4505 2.4877L4.57241 2.86325L4.2532 2.63106L3.93386 2.86325L4.05577 2.4877L3.73633 2.25555H4.13116L4.2532 1.88037Z" fill="#EFEFEF"/>
<path d="M4.2532 3.2063L4.37511 3.58147H4.76984L4.4505 3.81363L4.57241 4.18918L4.2532 3.95699L3.93386 4.18918L4.05577 3.81363L3.73633 3.58147H4.13116L4.2532 3.2063Z" fill="#EFEFEF"/>
<path d="M4.2532 4.53247L4.37511 4.90775H4.76984L4.4505 5.1398L4.57241 5.51535L4.2532 5.28316L3.93386 5.51535L4.05577 5.1398L3.73633 4.90775H4.13116L4.2532 4.53247Z" fill="#EFEFEF"/>
<path d="M4.2532 5.85815L4.37511 6.23367H4.76984L4.4505 6.46572L4.57241 6.84127L4.2532 6.60908L3.93386 6.84127L4.05577 6.46572L3.73633 6.23367H4.13116L4.2532 5.85815Z" fill="#EFEFEF"/>
<path d="M5.57938 1.21704L5.70128 1.59245H6.09601L5.77681 1.82464L5.89858 2.19992L5.57938 1.968L5.25993 2.19992L5.38194 1.82464L5.0625 1.59245H5.45733L5.57938 1.21704Z" fill="#EFEFEF"/>
<path d="M5.57938 2.54321L5.70128 2.91863H6.09601L5.77681 3.15082L5.89858 3.52609L5.57938 3.29417L5.25993 3.52609L5.38194 3.15082L5.0625 2.91863H5.45733L5.57938 2.54321Z" fill="#EFEFEF"/>
<path d="M5.57938 3.86914L5.70128 4.24455H6.09601L5.77681 4.47647L5.89858 4.85202L5.57938 4.6201L5.25993 4.85202L5.38194 4.47647L5.0625 4.24455H5.45733L5.57938 3.86914Z" fill="#EFEFEF"/>
<path d="M5.57938 5.19531L5.70128 5.57086H6.09601L5.77681 5.80265L5.89858 6.17819L5.57938 5.94604L5.25993 6.17819L5.38194 5.80265L5.0625 5.57086H5.45733L5.57938 5.19531Z" fill="#EFEFEF"/>
<path d="M6.90555 0.554199L7.02745 0.929611H7.42219L7.10285 1.16153L7.22475 1.53708L6.90555 1.30489L6.58611 1.53708L6.70811 1.16153L6.38867 0.929611H6.78341L6.90555 0.554199Z" fill="#EFEFEF"/>
<path d="M6.90555 1.88037L7.02745 2.25555H7.42219L7.10285 2.4877L7.22475 2.86325L6.90555 2.63106L6.58611 2.86325L6.70811 2.4877L6.38867 2.25555H6.78341L6.90555 1.88037Z" fill="#EFEFEF"/>
<path d="M6.90555 3.2063L7.02745 3.58147H7.42219L7.10285 3.81363L7.22475 4.18918L6.90555 3.95699L6.58611 4.18918L6.70811 3.81363L6.38867 3.58147H6.78341L6.90555 3.2063Z" fill="#EFEFEF"/>
<path d="M6.90555 4.53247L7.02745 4.90775H7.42219L7.10285 5.1398L7.22475 5.51535L6.90555 5.28316L6.58611 5.51535L6.70811 5.1398L6.38867 4.90775H6.78341L6.90555 4.53247Z" fill="#EFEFEF"/>
<path d="M6.90555 5.85815L7.02745 6.23367H7.42219L7.10285 6.46572L7.22475 6.84127L6.90555 6.60908L6.58611 6.84127L6.70811 6.46572L6.38867 6.23367H6.78341L6.90555 5.85815Z" fill="#EFEFEF"/>
</g>
<defs>
<clipPath id="clip0_119_24">
<rect width="16" height="16" fill="white"/>
</clipPath>
</defs>
</svg>
