<svg xmlns="http://www.w3.org/2000/svg" viewBox="-20622 -20583.652 128.502 33.051"><defs><style>.a{fill:#fff;}</style></defs><g transform="translate(-20762 -20724)"><path class="a" d="M19.566,0A26.772,26.772,0,0,0,0,10.675a25.273,25.273,0,0,1,9.849,2.413A25.942,25.942,0,0,1,19.566,0" transform="translate(140 140.348)"/><path class="a" d="M70.8,0A26.772,26.772,0,0,1,90.366,10.675a25.273,25.273,0,0,0-9.849,2.413A25.942,25.942,0,0,0,70.8,0" transform="translate(92.6 140.348)"/><path class="a" d="M43.71,11.006a28.462,28.462,0,0,1,10.51,2.016A24.712,24.712,0,0,0,43.71,0,24.762,24.762,0,0,0,33.2,12.989a28.442,28.442,0,0,1,10.51-1.983" transform="translate(117.773 140.348)"/><path class="a" d="M4.415,61.2a4.963,4.963,0,0,0,4.1,2.148c1.686,0,3.5-.727,3.5-2.446s-1.719-2.148-3.4-2.512c-3.041-.694-5.652-1.322-5.652-4.66C2.961,50.62,5.969,49,8.943,49a5.8,5.8,0,0,1,5.42,2.908l-2.214,1.454a3.835,3.835,0,0,0-3.371-1.917c-1.454,0-3.14.727-3.14,2.214,0,1.322,1.917,1.917,4.032,2.314,2.842.562,5.222,1.586,5.222,4.792,0,3.636-3.206,5.024-6.379,5.024-2.71,0-4.66-.727-6.214-2.975L4.415,61.2" transform="translate(138.46 107.543)"/><path class="a" d="M69.435,49a5.723,5.723,0,0,0-5.321,3.041H64.08V49.4H61.4v7.8c0,3.669-1.487,6.147-4.958,6.147-2.479,0-3.669-1.686-3.669-4.33V49.43H50.1v9.882c0,3.867,1.884,6.511,6.081,6.511A5.723,5.723,0,0,0,61.5,62.782h.033v2.644h2.677v-7.8c0-3.669,1.487-6.147,4.958-6.147,2.479,0,3.669,1.686,3.669,4.33v9.618h2.677V55.544c0-3.867-1.851-6.544-6.081-6.544" transform="translate(106.458 107.543)"/><path class="a" d="M140.4,23.5h2.677V34.638h.066a7.355,7.355,0,0,1,5.751-2.743,8.052,8.052,0,0,1,8.395,8.395,8.059,8.059,0,0,1-8,8.395,6.9,6.9,0,0,1-6.147-3.239h-.066v2.842H140.4V23.5m8.362,22.772a5.609,5.609,0,0,0,5.685-5.949c0-3.338-2.214-5.949-5.685-5.949a5.609,5.609,0,0,0-5.685,5.949c0,3.338,2.214,5.949,5.685,5.949" transform="translate(46.003 124.615)"/><path class="a" d="M202.732,53.2c0-1.454-.132-2.743-.132-3.8h2.512c0,.859.066,1.752.066,2.644h.066A5.8,5.8,0,0,1,210.566,49a3.245,3.245,0,0,1,1.091.165l-.165,2.71a5.09,5.09,0,0,0-1.421-.2c-3.239,0-4.693,2.281-4.693,5.949v7.8h-2.644V53.2" transform="translate(4.361 107.543)"/><path class="a" d="M249,62.585A8.229,8.229,0,0,1,241.9,65.89c-5.024,0-8.1-3.768-8.1-8.395A7.986,7.986,0,0,1,242,49.1c4.495,0,7.6,3.074,7.6,8.362v.859H236.675a5.325,5.325,0,0,0,5.222,5.123,5.994,5.994,0,0,0,5.09-2.413L249,62.585m-2.314-6.544a4.431,4.431,0,0,0-4.825-4.495,4.938,4.938,0,0,0-5.222,4.495Z" transform="translate(-16.527 107.476)"/><rect class="a" width="2.677" height="24.821" transform="translate(237.07 148.115)"/><rect class="a" width="2.677" height="24.821" transform="translate(244.771 148.115)"/><path class="a" d="M337.094,51.545A8.854,8.854,0,0,1,343.44,49.1c4.726-.033,6.709,2.214,6.709,6.742v6.875a18.493,18.493,0,0,0,.231,2.776h-2.545a11.861,11.861,0,0,1-.165-2.38H347.6a6.026,6.026,0,0,1-5.255,2.809c-3.239,0-5.949-1.653-5.949-4.759,0-5.288,6.147-5.619,10.08-5.619h1.025v-.463c0-2.314-1.454-3.5-3.966-3.5a7.117,7.117,0,0,0-4.759,1.752l-1.686-1.785m7.734,6.247c-3.371,0-5.586.925-5.586,3.074,0,2.016,1.487,2.776,3.5,2.776,3.074,0,4.66-2.214,4.726-4.825V57.792h-2.644Z" transform="translate(-85.217 107.476)"/><path class="a" d="M380.119,40.3a1.719,1.719,0,1,1-1.719,1.719,1.728,1.728,0,0,1,1.719-1.719m0,3.206a1.427,1.427,0,0,0,1.421-1.487,1.447,1.447,0,0,0-1.421-1.487,1.489,1.489,0,0,0,0,2.975Zm-.661-2.479h.76c.463,0,.694.2.694.562a.531.531,0,0,1-.529.562l.595.892h-.331l-.562-.859h-.33v.859h-.3Zm.3.892h.33c.264,0,.529,0,.529-.331,0-.264-.231-.3-.463-.3h-.4Z" transform="translate(-113.336 113.367)"/></g></svg>