<svg xmlns="http://www.w3.org/2000/svg" width="23" height="23" viewBox="0 0 23 23"><defs><style>.a,.d{fill:none;}.a{stroke:#222;}.b{fill:#222;}.c{stroke:none;}</style></defs><g transform="translate(-715 -2413)"><g class="a" transform="translate(715 2413)"><rect class="c" width="23" height="23" rx="2"/><rect class="d" x="0.5" y="0.5" width="22" height="22" rx="1.5"/></g><path class="b" d="M6.277,4.175a4.115,4.115,0,0,1-3.24-1.752A3.3,3.3,0,0,0,.419.947a.419.419,0,0,1,0-.839A4.114,4.114,0,0,1,3.659,1.86a3.061,3.061,0,0,0,5.237,0A4.115,4.115,0,0,1,12.136.108a.419.419,0,0,1,0,.839A3.3,3.3,0,0,0,9.517,2.423,4.115,4.115,0,0,1,6.277,4.175Zm0,4.555a4.115,4.115,0,0,1-3.24-1.752A3.3,3.3,0,0,0,.419,5.5a.419.419,0,0,1,0-.839,4.114,4.114,0,0,1,3.24,1.752,3.061,3.061,0,0,0,5.237,0,4.115,4.115,0,0,1,3.24-1.752.419.419,0,1,1,0,.839A3.3,3.3,0,0,0,9.517,6.978,4.115,4.115,0,0,1,6.277,8.73Zm15.562,8.463A4.115,4.115,0,0,1,18.6,15.441a3.061,3.061,0,0,0-5.237,0,4.115,4.115,0,0,1-3.24,1.752.419.419,0,0,1,0-.839,3.3,3.3,0,0,0,2.619-1.476,3.872,3.872,0,0,1,6.48,0,3.3,3.3,0,0,0,2.619,1.476.419.419,0,0,1,0,.839Zm0-4.375A4.115,4.115,0,0,1,18.6,11.066a3.061,3.061,0,0,0-5.237,0,4.115,4.115,0,0,1-3.24,1.752.419.419,0,0,1,0-.839A3.3,3.3,0,0,0,12.74,10.5a3.872,3.872,0,0,1,6.48,0,3.3,3.3,0,0,0,2.619,1.476.419.419,0,0,1,0,.839Zm0-4.375A4.116,4.116,0,0,1,18.6,6.69a3.061,3.061,0,0,0-5.237,0,4.115,4.115,0,0,1-3.24,1.752.419.419,0,0,1,0-.839A3.3,3.3,0,0,0,12.74,6.127a3.872,3.872,0,0,1,6.48,0A3.3,3.3,0,0,0,21.84,7.6a.419.419,0,0,1,0,.839Zm0-4.375A4.115,4.115,0,0,1,18.6,2.315a3.061,3.061,0,0,0-5.237,0,4.115,4.115,0,0,1-3.24,1.752.419.419,0,0,1,0-.839A3.3,3.3,0,0,0,12.74,1.752a3.872,3.872,0,0,1,6.48,0A3.3,3.3,0,0,0,21.84,3.228a.419.419,0,0,1,0,.839ZM6.277,13.286a4.115,4.115,0,0,1-3.24-1.752A3.3,3.3,0,0,0,.419,10.057a.419.419,0,0,1,0-.839,4.114,4.114,0,0,1,3.24,1.752,3.061,3.061,0,0,0,5.237,0,4.115,4.115,0,0,1,3.24-1.752.419.419,0,0,1,0,.839,3.3,3.3,0,0,0-2.619,1.476,4.115,4.115,0,0,1-3.24,1.752Zm0,4.555a4.115,4.115,0,0,1-3.24-1.752A3.3,3.3,0,0,0,.419,14.613a.419.419,0,0,1,0-.839,4.114,4.114,0,0,1,3.24,1.752,3.061,3.061,0,0,0,5.237,0,4.115,4.115,0,0,1,3.24-1.752.419.419,0,0,1,0,.839,3.3,3.3,0,0,0-2.619,1.476A4.115,4.115,0,0,1,6.277,17.841Zm0,0" transform="translate(735.478 2413.428) rotate(90)"/></g></svg>